<svg xmlns="http://www.w3.org/2000/svg" viewBox="0 0 64 64" role="img" aria-label="InvoiceGuard logo">
  <path d="M32 4 54 12v16c0 14-9.4 24.6-22 32C19.4 52.6 10 42 10 28V12L32 4z" fill="#0c4a3a"/>
  <path d="M32 8.5 50 15v13c0 11.8-7.9 20.9-18 27-10.1-6.1-18-15.2-18-27V15l18-6.5z" fill="none" stroke="#a8802f" stroke-width="2"/>
  <rect x="22" y="20" width="20" height="26" rx="2" fill="#faf8f3"/>
  <rect x="25.5" y="24" width="13" height="2.6" rx="1.3" fill="#0c4a3a"/>
  <rect x="25.5" y="29" width="9" height="2.2" rx="1.1" fill="#9aa8a0"/>
  <rect x="25.5" y="33.6" width="11" height="2.2" rx="1.1" fill="#9aa8a0"/>
  <path d="M26 41.5l3.4 3.4L37 37" fill="none" stroke="#12805c" stroke-width="3" stroke-linecap="round" stroke-linejoin="round"/>
</svg>
